<?xml version="1.0" encoding="utf-8"?>
<!-- Generator: Adobe Illustrator 28.0.0, SVG Export Plug-In . SVG Version: 6.00 Build 0)  -->
<svg version="1.1" id="Layer_1" xmlns="http://www.w3.org/2000/svg" xmlns:xlink="http://www.w3.org/1999/xlink" x="0px" y="0px"
	 viewBox="0 0 500 500" style="enable-background:new 0 0 500 500;" xml:space="preserve">
<g>
	<path d="M500,445.32c-8.63-0.03-17.27-0.02-25.9-0.17c-1.03-0.02-2.05-0.91-3.07-1.4c0.92-0.66,1.75-1.68,2.76-1.9
		c3.9-0.85,4.83-2,3.66-5.69c-1.08-3.42-2.44-6.75-3.75-10.33c-5.1,0-10.14-0.06-15.17,0.06c-0.71,0.02-1.76,0.75-2.04,1.4
		c-1.26,2.98-2.43,6.01-3.4,9.1c-0.94,2.99,0.24,4.77,3.43,5.43c1.09,0.23,1.99,1.39,2.97,2.12c-1.1,0.42-2.19,1.18-3.3,1.21
		c-5.03,0.13-10.06,0.12-15.09-0.01c-0.95-0.02-1.88-0.83-2.82-1.28c0.7-0.68,1.33-1.82,2.12-1.95c4.13-0.68,6.11-3.57,7.58-6.98
		c6.27-14.55,12.49-29.12,18.72-43.68c0.24-0.55,0.34-1.22,0.73-1.63c0.9-0.96,1.93-1.79,2.91-2.67c0.82,0.91,1.98,1.68,2.39,2.74
		c4.09,10.51,8.05,21.07,12.05,31.61c1.74,4.6,3.39,9.24,5.25,13.79c1.79,4.39,4.87,7.06,9.95,6.6C500,442.91,500,444.12,500,445.32
		z M472.37,422.17c-2.25-6.23-4.39-12.14-6.82-18.86c-2.56,6.76-4.8,12.65-7.15,18.86C463.23,422.17,467.51,422.17,472.37,422.17z"
		/>
	<path d="M342.6,496.59c0.4-0.72,0.7-1.97,1.21-2.06c2.55-0.44,3.25-1.9,3.28-4.3c0.06-4.8,0.38-9.59,0.54-14.38
		c0.19-5.67,0.17-5.67-4.98-8.8c4.46,0.01,8.12-1.18,11.34,2.95c4.98,6.39,10.72,12.19,16.72,18.89c0-6.4,0.32-12-0.21-17.53
		c-0.15-1.52-2.82-2.8-4.37-4.21c3.6,0,7.5,0,11.44,0c-0.05,0.35-0.05,0.75-0.1,0.75c-4.19,0.52-4.82,3.15-4.71,6.87
		c0.17,5.99-0.23,11.99-0.31,17.99c-0.02,1.28,0.3,2.56,0.47,3.83c-0.72,0-1.44,0-2.17,0c-6.77-7.86-13.54-15.71-20.31-23.57
		c-0.37,0.11-0.75,0.23-1.12,0.34c0,5.36,0,10.72,0,16.08c0,0.48-0.2,1.1,0.03,1.42c0.88,1.22,1.89,2.35,2.86,3.51
		c0.63,0.75,1.29,1.48,1.93,2.22c-0.72,0-1.44,0-2.17,0c-2.41,0-4.81,0-7.22,0C344.05,496.59,343.33,496.59,342.6,496.59z"/>
	<path d="M307.23,496.59c-2.18-0.24-4.35-0.52-6.53-0.69c-1.35-0.1-2.71-0.02-4.52-0.47c6.02-0.83,4.58-5.09,4.63-8.57
		c0.06-3.85,0.01-7.7,0.01-11.54c0-5.54,0-5.54-4.63-8.09c6.22,0,11.99-0.29,17.72,0.12c2.86,0.2,4.94,2.4,5.52,5.47
		c0.58,3.08-0.76,5.37-3.17,7.14c-0.87,0.63-1.8,1.18-3.08,2.01c4.13,4.42,5.03,11.42,12.22,13.02c-4.32,2.2-8.27,1.23-10.53-2.43
		c-1.58-2.56-3.02-5.21-4.79-7.63c-0.86-1.17-2.34-1.89-3.54-2.82c-0.33,0.2-0.66,0.4-0.98,0.6c0,3.07-0.2,6.15,0.12,9.19
		c0.09,0.91,1.49,2.07,2.52,2.4c1.43,0.47,2.29,0.71,1.2,2.28C308.67,496.59,307.95,496.59,307.23,496.59z M305.34,480.5
		c7.64,0.84,10.81-2.35,9.11-8.55c-0.89-3.26-3.34-3.69-6.21-3.54c-3.01,0.16-2.91,2.28-2.9,4.39
		C305.35,475.31,305.34,477.81,305.34,480.5z"/>
	<path d="M259.57,496.59c-6.85-2.91-11.07-7.63-10.86-15.52c0.2-7.69,5.4-13.86,12.59-14.8c8.87-1.15,15.69,2.98,17.84,10.82
		c2.17,7.92-1.16,15.21-8.42,18.48c-0.61,0.28-1.18,0.67-1.76,1.01C265.83,496.59,262.7,496.59,259.57,496.59z M275.31,481.61
		c-0.76-2.74-1.17-5.63-2.35-8.18c-1.66-3.6-4.63-5.76-8.83-5.71c-4.17,0.05-7.1,2.16-8.75,5.83c-2.62,5.8-2.69,11.69,0.73,17.21
		c3.19,5.15,10.34,5.96,14.7,1.8C273.85,489.65,274.82,485.85,275.31,481.61z"/>
	<path d="M55.97,496.59c-0.57-0.35-1.12-0.76-1.72-1.03c-6.77-3.03-10.19-9.34-9.01-16.66c1.05-6.51,6.68-11.95,13.5-12.57
		c3.89-0.35,7.83-0.06,11.88-0.06c0.38,3.17,0.66,5.47,0.93,7.78c-2.96-3.74-6.12-7.12-11.18-6.14c-2.51,0.49-5.29,1.97-6.99,3.86
		c-5.09,5.66-4.48,15.85,1.1,20.55c1.72,1.44,4.22,2.52,6.43,2.65c2.22,0.13,4.78-0.7,6.7-1.9c1.89-1.18,3.16-3.36,4.75-5.16
		c0.69,5.12-0.23,6.54-5.55,8.7C63.19,496.59,59.58,496.59,55.97,496.59z"/>
	<path d="M442.24,496.59c0.32-0.68,0.58-1.91,0.96-1.94c3.74-0.33,2.68-2.53,1.95-4.64c-0.24-0.68-0.56-1.34-0.7-2.04
		c-0.51-2.48-1.47-4.07-4.53-3.71c-2.77,0.33-6.01-0.65-6.4,3.67c-0.02,0.23-0.15,0.45-0.25,0.68c-1.17,2.83-2.74,5.78,2.08,7.07
		c-3.41,0-6.81,0-10.22,0c4.12-1.51,4.9-5.28,6.27-8.62c2.84-6.97,5.69-13.93,8.97-21.94c0.91,1.93,1.45,2.88,1.82,3.9
		c2.25,6.21,4.5,12.42,6.67,18.66c1.16,3.35,2.29,6.63,6.37,7.83c-3.6,0.36-7.21,0.73-10.81,1.09
		C443.68,496.59,442.96,496.59,442.24,496.59z M442.63,482.75c-1.2-3.5-2.23-6.5-3.49-10.18c-1.37,3.81-2.47,6.87-3.66,10.18
		C438,482.75,440.01,482.75,442.63,482.75z"/>
	<path d="M404.7,496.59c-1.69-0.24-3.37-0.56-5.07-0.69c-1.6-0.12-3.22-0.03-5.22-0.39c6.21-1.31,4.49-5.92,4.59-9.68
		c0.09-3.36,0.09-6.73,0-10.1c-0.09-3.38,1.47-7.67-5.64-7.79c1.69-0.79,1.97-1.03,2.24-1.03c4.07-0.02,8.14-0.02,12.23-0.02
		c-0.03,0.46-0.01,0.88-0.07,0.88c-3.95,0.67-4.6,3.29-4.44,6.81c0.23,4.92,0.08,9.86,0.05,14.78c-0.02,2.57,0.12,4.9,3.52,5.2
		c0.29,0.03,0.47,1.31,0.7,2.01C406.62,496.59,405.66,496.59,404.7,496.59z"/>
	<path d="M250.39,91.17c6.67-14.77,16.71-25.69,30.51-33.2c39.55-21.52,90.6,3.67,97.01,48.22c1.27,8.86,0.73,17.99,0.87,27
		c0.05,3.04-1.86,4.56-4.85,4.62c-3.01,0.06-5.1-1.94-5.18-5.25c-0.13-5.17-0.04-10.35-0.04-15.52
		c-0.01-12.57-3.84-23.87-11.35-33.91C343.42,64.47,319.38,56.29,297,62.55c-22.49,6.28-38.92,25.7-41.16,48.71
		c-0.29,2.98-0.46,5.99-0.46,8.99c-0.02,80.14-0.02,160.29-0.02,240.43c0,1.54,0,3.09,0,4.87c-3.36,0-6.44,0-10.12,0
		c0-1.46,0-2.96,0-4.46c0-80.63-0.04-161.25,0.04-241.88c0.01-15.07-4.41-28.37-14.44-39.68c-25.78-29.09-72.61-24.03-91.66,9.89
		c-4.86,8.66-7.29,17.99-7.28,27.94c0,5.17,0.07,10.35-0.07,15.52c-0.09,3.08-1.77,4.92-5.01,4.94c-3.03,0.01-5.01-1.67-5.04-4.54
		c-0.16-13.32-1.12-26.77,4.14-39.52c10.69-25.93,29.95-41.22,57.91-43.14c29.24-2,50.84,11.36,64.83,37.05
		C249.19,88.68,249.67,89.74,250.39,91.17z"/>
	<path d="M235.14,341.28c-4.92,0-9.44,0-14.44,0c0-1.61,0-3.13,0-4.65c0-73.03,0.01-146.07,0-219.1c0-16.71-11.6-29.76-28.59-32.25
		c-14.78-2.16-30.02,7.97-34.41,23.11c-0.86,2.96-1.28,6.14-1.3,9.23c-0.12,19.25-0.05,38.5-0.07,57.75
		c-0.01,4.92-2.86,8.15-7.13,8.22c-3.98,0.06-7.25-2.84-7.26-6.93c-0.06-21.05-0.56-42.13,0.18-63.16
		c0.8-22.5,20.56-41.48,43.18-42.82c23.55-1.39,44.69,14.58,48.98,37.08c0.49,2.58,0.83,5.24,0.83,7.87
		c0.04,74.24,0.04,148.47,0.04,222.71C235.14,339.17,235.14,340.01,235.14,341.28z"/>
	<path d="M279.79,341.28c-4.9,0-9.42,0-14.44,0c0-1.31,0-2.58,0-3.86c0-73.16-0.01-146.32,0.01-219.47
		c0.01-24.97,18.29-45.01,43.01-47.26c23.83-2.17,45.57,14.85,49.86,39.09c0.4,2.24,0.53,4.55,0.53,6.83
		c0.04,19.61,0.05,39.23,0.01,58.84c-0.01,4.58-2.09,7.29-5.78,7.91c-4.99,0.85-8.49-2.21-8.5-7.6
		c-0.04-18.89,0.03-37.78-0.03-56.67c-0.05-15.95-9.1-28.52-23.38-32.69c-19.7-5.75-39.85,8.36-41.18,28.86
		c-0.1,1.56-0.11,3.13-0.11,4.69c0,72.32,0,144.63,0,216.95C279.79,338.3,279.79,339.71,279.79,341.28z"/>
	<path d="M250.4,50.51c8.75-25.27,28.19-37.91,53.05-43.88c2.75-0.66,6.14-0.25,8.78,0.79c1.85,0.73,3.74,3.26,4.06,5.23
		c0.19,1.24-2.26,3.73-3.96,4.27c-5.12,1.63-10.47,2.54-15.71,3.81c-17.54,4.26-31.78,13.32-41.59,28.76
		c-0.9,1.42-1.71,2.9-2.44,4.41s-1.31,3.09-2.14,5.09c-0.49-1.08-0.84-1.87-1.2-2.65c-8.39-18.28-22.93-29.21-41.86-34.74
		c-4.48-1.31-9.15-1.94-13.72-2.96c-1.75-0.39-3.7-0.65-5.11-1.62c-1.71-1.18-4.36-3.37-4.09-4.54c0.47-2.05,2.54-4.41,4.53-5.25
		c2.39-1.01,5.52-1.19,8.1-0.64c19.84,4.23,36.23,13.97,47.44,31.24C247.1,41.76,248.55,46.41,250.4,50.51z"/>
	<path d="M126.84,417.01c0.01,17.71-12.39,29.45-31.1,29.46c-18.71,0.01-31.11-11.72-31.11-29.44c0-17.81,12.68-30.09,31.08-30.1
		C114.12,386.93,126.83,399.21,126.84,417.01z M114.62,416.64c-1.35-5.34-2.24-11.06-4.25-16.35c-2.49-6.57-7.87-9.86-14.96-9.77
		c-7.15,0.1-12.12,3.9-14.69,10.32c-4.17,10.43-4.25,21.12-0.22,31.63c2.62,6.83,7.79,10.56,15.22,10.57s12.74-3.69,15.2-10.54
		C112.67,427.62,113.34,422.34,114.62,416.64z"/>
	<path d="M374.38,403.65c0,4.78,0.01,9.56,0,14.34c-0.02,5.41-0.09,10.83-0.1,16.24c-0.01,5.25,1.06,6.41,6.16,7.56
		c1.09,0.25,1.97,1.42,2.95,2.16c-1.1,0.42-2.19,1.18-3.29,1.21c-5.63,0.12-11.27,0.13-16.9-0.01c-1.04-0.03-2.06-0.96-3.09-1.48
		c0.87-0.63,1.67-1.61,2.63-1.83c5.65-1.27,6.52-2.32,6.71-7.93c0.38-11.17,0.94-22.33,1.29-33.5c0.18-5.82-1.16-7.22-6.88-8.7
		c-0.95-0.24-1.64-1.47-2.45-2.24c0.98-0.38,1.95-1.04,2.94-1.08c2.4-0.09,4.9,0.57,7.19,0.09c5.5-1.17,8.77,1.48,12.18,5.32
		c9.73,10.97,19.82,21.63,29.77,32.4c0.47,0.51,1.02,0.96,2.16,2.02c0-4.32,0-7.96,0-11.6c0-5.66,0.02-11.31-0.01-16.97
		c-0.03-5.21-1.35-6.65-6.49-7.85c-1.11-0.26-2.03-1.38-3.03-2.11c1.16-0.46,2.31-1.28,3.48-1.31c5.51-0.14,11.03-0.13,16.54-0.01
		c1.07,0.02,2.11,0.82,3.17,1.26c-0.87,0.73-1.64,1.89-2.63,2.12c-5.6,1.3-6.59,2.52-6.69,8.38c-0.23,14.19-0.5,28.37-0.85,42.56
		c-0.03,1.24-0.79,2.46-1.2,3.69c-1.23-0.6-2.76-0.91-3.64-1.84c-12.05-12.76-24.03-25.6-35.99-38.45c-0.89-0.95-1.56-2.1-2.34-3.16
		C375.42,403.17,374.9,403.41,374.38,403.65z"/>
	<path d="M197.36,427.37c0-9.6,0.07-19.21-0.03-28.81c-0.04-4.17-1.83-5.7-6.53-6.74c-1.15-0.25-2.11-1.33-3.16-2.03
		c1.15-0.49,2.29-1.39,3.46-1.42c5.63-0.15,11.26-0.15,16.89-0.01c1.03,0.03,2.03,0.97,3.05,1.49c-0.85,0.65-1.62,1.67-2.57,1.89
		c-5.86,1.35-6.67,2.29-6.76,8.22c-0.23,14.06-0.47,28.12-0.81,42.17c-0.03,1.4-0.8,2.77-1.23,4.16c-1.41-0.71-3.15-1.11-4.17-2.19
		c-12.46-13.19-24.83-26.47-37.18-39.76c-0.46-0.49-0.59-1.29-0.88-1.94c-0.47,0.25-0.93,0.5-1.4,0.75c0,6.19,0.04,12.39-0.01,18.58
		c-0.03,3.96-0.2,7.92-0.3,11.88c-0.14,5.51,1.14,7.03,6.44,8.18c1.05,0.23,1.93,1.24,2.89,1.89c-1.02,0.51-2.02,1.43-3.05,1.46
		c-5.75,0.14-11.5,0.13-17.25,0.01c-0.97-0.02-1.93-0.81-2.89-1.24c0.88-0.72,1.67-1.85,2.67-2.08c5.32-1.21,6.46-2.42,6.64-7.71
		c0.38-11.29,0.8-22.57,1.12-33.86c0.16-5.72-1.06-7.08-6.58-8.52c-1.02-0.27-1.81-1.4-2.7-2.13c1.05-0.43,2.09-1.16,3.17-1.22
		c2.27-0.13,4.65,0.51,6.82,0.08c5.23-1.06,8.56,1.06,11.97,4.92c9.7,10.99,19.85,21.58,29.8,32.34c0.63,0.69,1.11,1.52,1.66,2.29
		C196.73,427.81,197.05,427.59,197.36,427.37z"/>
	<path d="M249.71,70.22c-5.66-5.35-10.79-10.76-16.48-15.49c-13.7-11.38-29.43-18.1-47.38-18.67c-16.72-0.53-30.82,6.19-43.3,16.81
		c-2.84,2.41-5.5,5.03-8.41,7.35c-4.55,3.63-8.16,3.53-11.01-0.03c-3.02-3.78-2.57-7.71,1.81-11.27
		c19.48-15.85,41.6-23.39,66.87-21.26c16.75,1.41,31.55,7.02,43.47,19.2c5.87,5.99,10.32,12.94,13.63,20.63
		C249.26,68.33,249.42,69.24,249.71,70.22z"/>
	<path d="M250.75,70.26c0.55-1.39,1.02-2.81,1.65-4.15c10.91-23.06,29.18-35.58,54.45-38.24c25.89-2.73,48.66,4.65,68.74,20.92
		c3.8,3.08,4.67,5.91,3.2,9.38c-1.93,4.56-6.23,6.19-10.23,3.33c-4.29-3.06-8.11-6.76-12.21-10.09
		c-12.55-10.22-26.71-16.27-43.12-15.3c-18.28,1.08-34.17,8.33-47.84,20.37c-4.31,3.8-8.11,8.18-12.06,12.38
		c-0.61,0.65-0.76,1.73-1.12,2.62C251.73,71.06,251.24,70.66,250.75,70.26z"/>
	<path d="M0.95,388.42c15.47,0,30.95,0,46.7,0c0.63,4.85,1.3,9.68,1.83,14.53c0.07,0.61-0.61,1.31-0.95,1.96
		c-0.75-0.54-1.72-0.94-2.23-1.66c-1.75-2.52-2.91-5.62-5.08-7.65c-4.91-4.59-11.18-3.53-17.12-2.8c-0.98,0.12-2.43,1.99-2.47,3.11
		c-0.24,6.09-0.12,12.19-0.12,18.49c3.09,0,5.84,0.19,8.56-0.05c3.91-0.34,5.19-3.32,6.19-6.59c0.28-0.93,1.22-1.66,1.85-2.49
		c0.46,0.93,1.29,1.85,1.31,2.79c0.12,5.76,0.1,11.53,0.01,17.3c-0.01,0.75-0.76,1.48-1.16,2.22c-0.61-0.42-1.52-0.7-1.77-1.27
		c-3.71-8.38-4.77-9-14.76-8.09c0,6.5-0.26,13.05,0.12,19.56c0.17,3,3.28,3.34,5.75,4c1.07,0.28,1.96,1.24,2.93,1.9
		c-1.03,0.51-2.06,1.44-3.1,1.45c-8.03,0.12-16.07,0.12-24.1,0c-0.99-0.02-1.96-0.99-2.94-1.52c0.85-0.62,1.62-1.59,2.56-1.81
		c5.09-1.16,6.07-2.26,6.08-7.63c0.02-11.54,0.02-23.08,0-34.63c-0.01-5.6-0.79-6.44-6.26-7.87c-1.05-0.27-1.85-1.47-2.77-2.24
		C0.32,389.1,0.64,388.76,0.95,388.42z"/>
	<path d="M221.57,406.24c-0.29-1.45-0.48-1.81-0.41-2.13c1.14-5.38,2.3-10.76,3.43-15.99c17.96,0,35.79,0,53.87,0
		c0.64,5.06,1.35,10.38,1.91,15.73c0.06,0.53-0.77,1.58-1.25,1.62c-0.61,0.06-1.57-0.51-1.91-1.08c-1.03-1.75-1.64-3.75-2.75-5.43
		c-3.16-4.81-7.64-7.07-13.48-6.67c-2.35,0.16-3.56,1.07-3.56,3.49c0.02,13.34,0.02,26.69,0.03,40.03c0,3.93,2.42,5.36,5.88,6
		c1.02,0.19,1.88,1.28,2.81,1.95c-1.02,0.48-2.04,1.37-3.07,1.39c-7.91,0.12-15.83,0.11-23.74,0.01c-0.97-0.01-1.93-0.79-2.9-1.21
		c0.86-0.73,1.63-1.89,2.61-2.12c5.01-1.17,6.07-2.26,6.08-7.27c0.03-12.62-0.07-25.25,0.06-37.87c0.03-3.3-1.16-4.57-4.43-4.41
		c-7.72,0.39-12.43,4.9-16.03,11.18C224.15,404.46,222.93,405.07,221.57,406.24z"/>
	<path d="M305.12,425.83c-1.3,3.59-2.68,7.04-3.8,10.57c-0.99,3.14,0.07,4.49,3.36,5.4c1.13,0.31,2.06,1.35,3.08,2.06
		c-1.21,0.45-2.41,1.25-3.63,1.29c-4.9,0.15-9.82,0.13-14.72,0.01c-1-0.02-1.98-0.76-2.96-1.16c0.78-0.73,1.46-1.93,2.34-2.1
		c4.43-0.83,6.27-4.13,7.82-7.74c5.96-13.89,11.83-27.82,17.87-41.68c0.88-2.02,2.54-3.69,3.85-5.53c1.27,1.84,2.96,3.52,3.74,5.55
		c5.26,13.53,10.37,27.11,15.43,40.72c1.64,4.41,3.89,7.94,9.06,8.69c0.71,0.1,1.26,1.35,1.88,2.06c-0.73,0.41-1.45,1.18-2.18,1.18
		c-8.27,0.08-16.55,0.1-24.82-0.01c-0.78-0.01-1.54-0.98-2.31-1.5c0.73-0.6,1.38-1.56,2.21-1.74c5.21-1.16,5.66-1.91,3.88-7.09
		c-3.09-8.98-3.09-8.98-12.7-8.98C310.12,425.83,307.73,425.83,305.12,425.83z M313.79,403.36c-2.63,6.88-4.87,12.72-7.18,18.76
		c4.75,0,9.12,0,13.95,0C318.35,416,316.26,410.21,313.79,403.36z"/>
	<path d="M250.74,38.37c-2.91-5.28-5.23-10.76-8.69-15.36c-2.73-3.62-6.86-6.2-10.41-9.18c-0.72-0.61-1.67-0.95-2.47-1.47
		c-3.81-2.49-4.96-4.81-3.61-7.2c1.42-2.52,5.11-3.34,8.73-1.86c4.72,1.94,7.57,5.85,9.99,10.03c1.55,2.68,2.73,5.61,3.73,8.55
		c0.99,2.93,1.54,6.01,2.52,10c1.39-9.63,4.08-17.74,10.13-24.35c2.76-3.02,5.98-5.47,10.33-4.73c1.55,0.26,3.6,1.46,4.13,2.76
		c0.5,1.25-0.37,3.36-1.2,4.75c-0.68,1.14-2.09,1.99-3.35,2.62C260.7,17.87,255,26.15,251.55,36.3
		C251.27,37.08,250.94,37.84,250.74,38.37z"/>
	<path d="M292.8,113.89c2.96-13.52,18.61-21.28,30.93-15.28c1.49,0.72,2.92,1.69,4.15,2.79c2.62,2.35,4.62,5.29,3.16,8.85
		c-0.71,1.74-2.62,3.69-4.36,4.16c-3.71,0.99-6.25-1.43-8.28-4.38c-5.32-7.73-12.73-8.59-19.78-2.29c-1.33,1.19-2.41,2.66-3.64,3.97
		c-0.71,0.75-1.49,1.42-2.24,2.13C292.74,113.84,292.8,113.89,292.8,113.89z"/>
	<path d="M207.4,113.63c-1.83-1.99-3.56-4.08-5.5-5.96c-6.75-6.51-16.22-4.66-19.64,2.19c-1.58,3.18-4.43,5.49-8.17,4.57
		c-1.76-0.44-3.76-2.33-4.46-4.05c-1.45-3.53,0.43-6.49,3.04-8.94c7.64-7.17,22.06-6.33,29.29,1.98c2.5,2.87,4.26,6.37,6.36,9.59
		C208.02,113.21,207.71,113.42,207.4,113.63z"/>
	<path d="M120.04,495.72c-4.19,0-8.38,0-12.26,0c0.89-1.3,2.54-2.64,2.56-4.01c0.03-1.92-0.92-3.98-1.85-5.77
		c-1.75-3.35-5.74-2.16-7.24-1.28c-2.07,1.21-3.19,4.52-4.02,7.15c-0.28,0.88,1.55,2.43,2.48,3.76c-2.9,0-6.26,0-9.62,0
		c4.39-1.66,5.04-5.9,6.54-9.51c2.68-6.42,5.29-12.88,7.95-19.31c0.08-0.18,0.37-0.28,1.03-0.76c0.53,1.19,1.08,2.26,1.49,3.39
		c2.25,6.2,4.53,12.4,6.67,18.64c1.13,3.29,2.41,6.3,6.55,6.85C120.23,495.16,120.13,495.44,120.04,495.72z M100.34,482.68
		c2.54,0,4.63,0,7.1,0c-1.16-3.3-2.21-6.32-3.51-10.02C102.59,476.42,101.51,479.43,100.34,482.68z"/>
	<path d="M217.83,479.77c4.26,0.6,8.08,1.22,9.49-4.05c0,3.51,0,7.02,0,10.52c-1.44-4.9-5-4.95-8.97-4.09
		c-1.86,7.59-0.83,10.99,4.87,13.43c-5.26,0-9.6,0-14.71,0c1.08-0.6,1.71-0.78,2.07-1.18c0.99-1.11,2.6-2.29,2.65-3.5
		c0.27-6.36,0.36-12.74-0.04-19.08c-0.1-1.64-2.22-3.14-3.37-4.65c6.39,0,13.36,0,20.7,0c0.5,1.92,1.04,4.02,1.59,6.12
		c-0.25,0.3-0.5,0.6-0.76,0.9c-1.98-4.93-5.68-6.09-10.18-5.77c-2.21,0.15-3.35,1.01-3.34,3.27
		C217.85,474.3,217.83,476.93,217.83,479.77z"/>
	<path d="M161.52,488.14c-0.34,2.18-0.61,4.38-1.09,6.53c-0.11,0.51-0.93,1.22-1.43,1.23c-7.23,0.08-14.45,0.05-22.41,0.05
		c2.17-1.55,4.16-2.29,4.87-3.67c0.74-1.44,0.29-3.51,0.3-5.31c0.02-3.96-0.03-7.93,0.02-11.89c0.04-3.4,0.77-7.16-4.41-7.85
		c4.32,0,8.64,0,13.28,0c-1.62,1.14-3.56,1.8-4.16,3.1c-0.7,1.49-0.25,3.52-0.25,5.32c-0.01,4.92,0.09,9.85-0.04,14.77
		c-0.08,2.73,0.87,3.74,3.69,3.97c5.27,0.42,8.72-1.75,10.65-6.83C160.86,487.76,161.19,487.95,161.52,488.14z"/>
	<path d="M178.91,467.12c4.19,0,8.38,0,12.58,0c-6.02,1.79-3.76,6.71-3.96,10.59c-0.19,3.71,0.05,7.44-0.07,11.15
		c-0.1,3.14-0.06,6.01,4.88,5.71c-0.24,0.31-0.48,0.63-0.71,0.94c-4.25,0-8.49,0-12.97,0c1.54-1.07,3.48-1.73,4.09-3.02
		c0.71-1.48,0.27-3.52,0.28-5.31c0.02-4.32-0.15-8.64,0.06-12.95C183.25,470.88,182.88,468.2,178.91,467.12z"/>
	<path d="M292.74,113.84c-0.05,0.31-0.11,0.63-0.16,0.94c0.07-0.3,0.15-0.6,0.22-0.89L292.74,113.84z"/>
</g>
</svg>
